<svg height="60" width="60" xmlns="http://www.w3.org/2000/svg"><g fill="none" fill-rule="evenodd"><path d="M32.227 2.144l7.315 15.804a1.94 1.94 0 001.45 1.123l16.357 2.534a2.091 2.091 0 011.067 3.502L46.58 37.408a2.139 2.139 0 00-.554 1.818l2.794 17.37a1.954 1.954 0 01-2.793 2.164l-14.631-8.201a1.82 1.82 0 00-1.792 0l-14.63 8.2a1.954 1.954 0 01-2.794-2.163l2.794-17.37a2.139 2.139 0 00-.554-1.818L2.584 25.107a2.091 2.091 0 011.067-3.502l16.357-2.534a1.94 1.94 0 001.45-1.123l7.315-15.804a1.875 1.875 0 013.454 0z" fill="#FFE100"/><path d="M37.39 14.11a60.614 60.614 0 00-13.18 9.52A57.32 57.32 0 0013.63 37.4L1.59 25.11a2.079 2.079 0 011.09-3.5l16.64-2.54a1.997 1.997 0 001.48-1.12l7.44-15.81a1.929 1.929 0 013.52 0l5.63 11.97zM46.36 37.41a2.115 2.115 0 00-.56 1.82l2.84 17.37a1.977 1.977 0 01-2.84 2.16l-1.75-.96a2.064 2.064 0 001.09-2.2L42.3 38.23a2.115 2.115 0 01.56-1.82l12.05-12.3c.759-.792.79-2.032.07-2.86l2.34.36a2.079 2.079 0 011.09 3.5l-12.05 12.3z" fill="#FFB600"/><path d="M14.36 55.6c-.19 1.008.402 2 1.38 2.31l-1.54.85a1.977 1.977 0 01-2.84-2.16l2.84-17.37a2.115 2.115 0 00-.56-1.82L1.59 25.11a2.079 2.079 0 011.09-3.5l1.76-.27a2.12 2.12 0 00.15 2.77l12.05 12.3c.465.484.672 1.159.56 1.82L14.36 55.6zM31.62 1.89L24.3 17.45a1.997 1.997 0 01-1.48 1.12l-3.49.53-.01-.03a1.997 1.997 0 001.48-1.12l7.44-15.81a1.927 1.927 0 013.38-.25z" fill="#FFF"/><g transform="translate(0 1)"><circle cx="13.213" cy="44.179" fill="#000" fill-rule="nonzero" r="1"/><path d="M13.87 40.23l.33-2a2.115 2.115 0 00-.56-1.82L1.59 24.11a2.079 2.079 0 011.09-3.5l16.64-2.54a1.997 1.997 0 001.48-1.12l7.44-15.81a1.929 1.929 0 013.52 0l7.44 15.81c.28.594.833 1.013 1.48 1.12l16.64 2.54a2.079 2.079 0 011.09 3.5l-12.05 12.3a2.115 2.115 0 00-.56 1.82l2.84 17.37a1.977 1.977 0 01-2.84 2.16l-14.89-8.2a1.845 1.845 0 00-1.82 0l-14.89 8.2a1.977 1.977 0 01-2.84-2.16l1.22-7.47" stroke="#000" stroke-linecap="round" stroke-linejoin="round" stroke-width="2"/><path d="M13.63 36.4a57.317 57.317 0 0110.58-13.77 60.614 60.614 0 0113.18-9.52" stroke="#000" stroke-linecap="round" stroke-linejoin="round"/></g></g></svg>